<svg xmlns="http://www.w3.org/2000/svg" width="32" height="32" viewBox="0 0 32 32" fill="none">
  <rect width="32" height="32" rx="6" fill="#2563EB"/>
  <path d="M16 8C12.13 8 9 11.13 9 15C9 18.17 11.21 20.84 14.22 21.74C14.37 21.29 14.7 21 15 21H17C17.3 21 17.63 21.29 17.78 21.74C20.79 20.84 23 18.17 23 15C23 11.13 19.87 8 16 8ZM12 15C11.45 15 11 14.55 11 14C11 13.45 11.45 13 12 13C12.55 13 13 13.45 13 14C13 14.55 12.55 15 12 15ZM16 19C14.34 19 13 17.66 13 16C13 14.34 14.34 13 16 13C17.66 13 19 14.34 19 16C19 17.66 17.66 19 16 19ZM20 15C19.45 15 19 14.55 19 14C19 13.45 19.45 13 20 13C20.55 13 21 13.45 21 14C21 14.55 20.55 15 20 15Z" fill="white"/>
  <path d="M23 22V24H9V22H7V24C7 25.1 7.9 26 9 26H23C24.1 26 25 25.1 25 24V22H23Z" fill="white"/>
</svg> 